<svg xmlns="http://www.w3.org/2000/svg" width="100" height="100" viewBox="0 0 100 100" fill="none">
  <circle cx="50" cy="50" r="50" fill="#E5E7EB"/>
  <path d="M65.5 40C65.5 42.4853 63.4853 44.5 61 44.5C58.5147 44.5 56.5 42.4853 56.5 40C56.5 37.5147 58.5147 35.5 61 35.5C63.4853 35.5 65.5 37.5147 65.5 40Z" fill="#9CA3AF"/>
  <path d="M43.5 40C43.5 42.4853 41.4853 44.5 39 44.5C36.5147 44.5 34.5 42.4853 34.5 40C34.5 37.5147 36.5147 35.5 39 35.5C41.4853 35.5 43.5 37.5147 43.5 40Z" fill="#9CA3AF"/>
  <path d="M50 70C59.665 70 67.5 62.165 67.5 52.5H32.5C32.5 62.165 40.335 70 50 70Z" fill="#9CA3AF"/>
  <path d="M73 35C73 36.6569 71.6569 38 70 38C68.3431 38 67 36.6569 67 35C67 33.3431 68.3431 32 70 32C71.6569 32 73 33.3431 73 35Z" fill="#9CA3AF"/>
  <path d="M33 35C33 36.6569 31.6569 38 30 38C28.3431 38 27 36.6569 27 35C27 33.3431 28.3431 32 30 32C31.6569 32 33 33.3431 33 35Z" fill="#9CA3AF"/>
  <path d="M77 45C77 46.6569 75.6569 48 74 48C72.3431 48 71 46.6569 71 45C71 43.3431 72.3431 42 74 42C75.6569 42 77 43.3431 77 45Z" fill="#9CA3AF"/>
  <path d="M29 45C29 46.6569 27.6569 48 26 48C24.3431 48 23 46.6569 23 45C23 43.3431 24.3431 42 26 42C27.6569 42 29 43.3431 29 45Z" fill="#9CA3AF"/>
</svg>
