<svg width="800" height="600" xmlns="http://www.w3.org/2000/svg">
  <!-- Background -->
  <rect width="100%" height="100%" fill="#fef3c7" />
  
  <!-- Icon -->
  <g transform="translate(400, 240)">
    <!-- Multiple Paw Icons -->
    <g transform="translate(-100, -20) scale(0.7)">
      <path d="M-30,-20 C-40,-35 -60,-35 -70,-15 C-80,5 -70,25 -50,25 C-30,25 -20,-5 -30,-20 Z" fill="#f59e0b" opacity="0.8" />
      <path d="M30,-20 C20,-35 0,-35 -10,-15 C-20,5 -10,25 10,25 C30,25 40,-5 30,-20 Z" fill="#f59e0b" opacity="0.8" />
      <path d="M-10,30 C-20,15 -40,15 -50,35 C-60,55 -50,75 -30,75 C-10,75 0,45 -10,30 Z" fill="#f59e0b" opacity="0.8" />
      <path d="M30,30 C20,15 0,15 -10,35 C-20,55 -10,75 10,75 C30,75 40,45 30,30 Z" fill="#f59e0b" opacity="0.8" />
      <ellipse cx="0" cy="10" rx="25" ry="30" fill="#f59e0b" opacity="0.8" />
    </g>
    
    <g transform="translate(30, 20) scale(0.7)">
      <path d="M-30,-20 C-40,-35 -60,-35 -70,-15 C-80,5 -70,25 -50,25 C-30,25 -20,-5 -30,-20 Z" fill="#f59e0b" opacity="0.8" />
      <path d="M30,-20 C20,-35 0,-35 -10,-15 C-20,5 -10,25 10,25 C30,25 40,-5 30,-20 Z" fill="#f59e0b" opacity="0.8" />
      <path d="M-10,30 C-20,15 -40,15 -50,35 C-60,55 -50,75 -30,75 C-10,75 0,45 -10,30 Z" fill="#f59e0b" opacity="0.8" />
      <path d="M30,30 C20,15 0,15 -10,35 C-20,55 -10,75 10,75 C30,75 40,45 30,30 Z" fill="#f59e0b" opacity="0.8" />
      <ellipse cx="0" cy="10" rx="25" ry="30" fill="#f59e0b" opacity="0.8" />
    </g>
    
    <g transform="translate(100, -40) scale(0.5)">
      <path d="M-30,-20 C-40,-35 -60,-35 -70,-15 C-80,5 -70,25 -50,25 C-30,25 -20,-5 -30,-20 Z" fill="#f59e0b" opacity="0.8" />
      <path d="M30,-20 C20,-35 0,-35 -10,-15 C-20,5 -10,25 10,25 C30,25 40,-5 30,-20 Z" fill="#f59e0b" opacity="0.8" />
      <path d="M-10,30 C-20,15 -40,15 -50,35 C-60,55 -50,75 -30,75 C-10,75 0,45 -10,30 Z" fill="#f59e0b" opacity="0.8" />
      <path d="M30,30 C20,15 0,15 -10,35 C-20,55 -10,75 10,75 C30,75 40,45 30,30 Z" fill="#f59e0b" opacity="0.8" />
      <ellipse cx="0" cy="10" rx="25" ry="30" fill="#f59e0b" opacity="0.8" />
    </g>
  </g>
  
  <!-- Labels -->
  <rect x="250" y="350" width="300" height="40" rx="20" fill="#d97706" opacity="0.9" />
  <text x="400" y="378" font-family="Arial, sans-serif" font-size="20" fill="white" text-anchor="middle">Communal Cremation</text>
  <text x="400" y="430" font-family="Arial, sans-serif" font-size="18" fill="#78350f" text-anchor="middle">Respectful Group Service</text>
</svg> 