<svg width="800" height="600" xmlns="http://www.w3.org/2000/svg">
  <!-- Background -->
  <rect width="100%" height="100%" fill="#f3f4f6" />
  
  <!-- Logo/Icon -->
  <g transform="translate(400, 260)">
    <!-- Paw Print Icon -->
    <path d="M-50,-30 C-60,-45 -80,-45 -90,-25 C-100,-5 -90,15 -70,15 C-50,15 -40,-15 -50,-30 Z" fill="#4ade80" opacity="0.8" />
    <path d="M50,-30 C40,-45 20,-45 10,-25 C0,-5 10,15 30,15 C50,15 60,-15 50,-30 Z" fill="#4ade80" opacity="0.8" />
    <path d="M-20,20 C-30,5 -50,5 -60,25 C-70,45 -60,65 -40,65 C-20,65 -10,35 -20,20 Z" fill="#4ade80" opacity="0.8" />
    <path d="M20,20 C10,5 -10,5 -20,25 C-30,45 -20,65 0,65 C20,65 30,35 20,20 Z" fill="#4ade80" opacity="0.8" />
    <ellipse cx="0" cy="0" rx="30" ry="45" fill="#4ade80" opacity="0.8" />
  </g>
  
  <!-- Text -->
  <text x="400" y="400" font-family="Arial, sans-serif" font-size="24" fill="#374151" text-anchor="middle">RainbowPaws Service</text>
  <text x="400" y="430" font-family="Arial, sans-serif" font-size="18" fill="#6b7280" text-anchor="middle">Image Coming Soon</text>
</svg> 